<?xml version="1.0" encoding="UTF-8" standalone="no"?>
<!-- Created with Inkscape (http://www.inkscape.org/) -->

<svg
   xmlns:dc="http://purl.org/dc/elements/1.1/"
   xmlns:cc="http://creativecommons.org/ns#"
   xmlns:rdf="http://www.w3.org/1999/02/22-rdf-syntax-ns#"
   xmlns:svg="http://www.w3.org/2000/svg"
   xmlns="http://www.w3.org/2000/svg"
   xmlns:sodipodi="http://sodipodi.sourceforge.net/DTD/sodipodi-0.dtd"
   xmlns:inkscape="http://www.inkscape.org/namespaces/inkscape"
   width="87.547356mm"
   height="91.929535mm"
   viewBox="0 0 87.547356 91.929535"
   version="1.1"
   id="svg8"
   inkscape:version="0.92.3 (2405546, 2018-03-11)"
   sodipodi:docname="deer.svg"
   inkscape:export-filename="/home/algot/Documents/runeman.org/clipart/2019/deer-f.png"
   inkscape:export-xdpi="165.92592"
   inkscape:export-ydpi="165.92592">
  <title
     id="title42">Deer Silhouette</title>
  <defs
     id="defs2" />
  <sodipodi:namedview
     id="base"
     pagecolor="#ffffff"
     bordercolor="#666666"
     borderopacity="1.0"
     inkscape:pageopacity="0.0"
     inkscape:pageshadow="2"
     inkscape:zoom="1.4"
     inkscape:cx="164.94771"
     inkscape:cy="197.7465"
     inkscape:document-units="mm"
     inkscape:current-layer="layer1"
     showgrid="false"
     inkscape:window-width="1366"
     inkscape:window-height="712"
     inkscape:window-x="0"
     inkscape:window-y="0"
     inkscape:window-maximized="1"
     inkscape:snap-global="false"
     fit-margin-top="0"
     fit-margin-left="0"
     fit-margin-right="0"
     fit-margin-bottom="0" />
  <metadata
     id="metadata5">
    <rdf:RDF>
      <cc:Work
         rdf:about="">
        <dc:format>image/svg+xml</dc:format>
        <dc:type
           rdf:resource="http://purl.org/dc/dcmitype/StillImage" />
        <dc:title>Deer Silhouette</dc:title>
        <dc:date>2019-04-12</dc:date>
        <dc:creator>
          <cc:Agent>
            <dc:title>Algot Runeman</dc:title>
          </cc:Agent>
        </dc:creator>
        <dc:rights>
          <cc:Agent>
            <dc:title>Algot Runeman</dc:title>
          </cc:Agent>
        </dc:rights>
        <dc:publisher>
          <cc:Agent>
            <dc:title>runeman.org</dc:title>
          </cc:Agent>
        </dc:publisher>
        <dc:identifier>deer.svg</dc:identifier>
        <cc:license
           rdf:resource="http://creativecommons.org/publicdomain/zero/1.0/" />
      </cc:Work>
      <cc:License
         rdf:about="http://creativecommons.org/publicdomain/zero/1.0/">
        <cc:permits
           rdf:resource="http://creativecommons.org/ns#Reproduction" />
        <cc:permits
           rdf:resource="http://creativecommons.org/ns#Distribution" />
        <cc:permits
           rdf:resource="http://creativecommons.org/ns#DerivativeWorks" />
      </cc:License>
    </rdf:RDF>
  </metadata>
  <g
     inkscape:label="Layer 1"
     inkscape:groupmode="layer"
     id="layer1"
     transform="translate(-102.72887,-58.175744)">
    <path
       style="fill:#000000;fill-rule:evenodd;stroke:#000000;stroke-width:0.26458332px;stroke-linecap:butt;stroke-linejoin:miter;stroke-opacity:1"
       d="m 109.80208,85.900296 -2.83482,-1.322917 -0.75595,-0.755951 -0.75595,-2.456847 -0.37798,-2.078868 v -0.944941 h 1.32292 l 2.45684,0.755954 1.13393,0.755952 1.70089,2.078868 0.75596,-0.377976 -2.83483,-2.645833 -3.40178,-2.645833 c 0,0 -1.38342,-1.948505 -1.88988,-3.02381 -0.33953,-0.720887 -0.66766,-1.47592 -0.75596,-2.267857 -0.0702,-0.629204 0.25915,-1.260678 0.18899,-1.889882 -0.0883,-0.791936 -0.64289,-1.479075 -0.75595,-2.267857 -0.2415,-1.68484 -0.15575,-3.435898 0.18899,-5.102678 0.24643,-1.191438 1.32292,-3.401784 1.32292,-3.401784 h 0.37797 c 0,0 -0.47214,2.256132 -0.56696,3.401784 -0.0624,0.753377 -0.0536,1.513807 0,2.267858 0.0631,0.888657 0.14176,1.786819 0.37797,2.645833 0.21713,0.78964 0.94494,2.267858 0.94494,2.267858 l 1.13393,-0.377976 1.88988,-1.322917 1.13393,-2.267857 h 0.56697 v 1.133927 l -1.32292,2.456847 -2.26786,1.889879 -0.18899,1.322917 0.75596,2.834822 4.34672,3.779761 2.07887,1.889882 1.13393,0.755951 0.56696,0.566965 1.32292,-0.377976 2.26786,-1.322916 2.07887,-2.267858 1.70089,-1.700892 V 73.80506 h 0.37798 l 0.56696,1.889879 -0.75595,1.322916 c 0,0 1.30788,-0.548282 1.88988,-0.944941 0.70034,-0.477311 1.27504,-1.117563 1.88988,-1.700892 0.32315,-0.306591 0.76371,-0.538023 0.94494,-0.944941 0.48763,-1.094903 0.18899,-3.590771 0.18899,-3.590771 0,0 0.29238,2.34607 1.13393,2.267854 0.45665,-0.04244 0.4487,-0.869786 0.37797,-1.322916 -0.14013,-0.897669 -1.22161,-1.406937 -1.5119,-2.267855 -0.32267,-0.956968 -0.18899,-3.023812 -0.18899,-3.023812 l 0.37798,-1.133927 0.56696,2.078868 1.13393,3.023809 1.13393,-2.645833 -0.94494,-4.346726 v -1.511903 h 0.37797 c 0,0 1.25604,2.705403 1.51191,4.157736 0.25139,1.426933 0,4.346726 0,4.346726 0,0 -1.27949,3.164422 -2.26786,4.535715 -0.78138,1.084102 -1.78902,2.002878 -2.83482,2.834823 -1.39527,1.109953 -4.53571,2.83482 -4.53571,2.83482 l -3.02381,2.07887 0.94494,0.944939 0.75595,-1.511904 1.32292,-0.377975 1.70089,-0.377976 c 0,0 1.28613,-0.827828 1.88988,-0.566965 0.25862,0.111742 0.31325,0.481761 0.37798,0.755951 0.0868,0.367865 0.097,0.768616 0,1.13393 -0.13036,0.490877 -0.75596,1.322917 -0.75596,1.322917 l -0.94494,2.267855 -2.26785,0.944941 -0.56697,0.188989 -1.13393,2.078868 c 0,0 0.85027,2.44761 1.88988,3.023809 0.88158,0.488616 2.01742,-0.05574 3.02381,0 1.13916,0.06309 2.26965,0.51915 3.40179,0.377976 1.0682,-0.133202 1.97276,-0.90135 3.02381,-1.133927 0.80197,-0.177459 1.63838,-0.257987 2.45684,-0.188989 1.03529,0.08728 1.99072,0.645652 3.02381,0.755954 1.94285,0.207436 3.90499,-0.157487 5.85863,-0.188989 2.77147,-0.04469 5.54431,0.06021 8.31548,0 1.44994,-0.0315 2.89847,-0.265409 4.34673,-0.188987 1.27225,0.06713 2.50927,0.472206 3.77976,0.566962 1.38207,0.103079 2.77857,-0.136565 4.15774,0 1.27862,0.126609 2.55123,0.379641 3.77976,0.755955 2.02478,0.620215 3.97192,1.495213 5.85863,2.456844 1.83851,0.937064 3.64817,1.964952 5.29167,3.212798 1.10038,0.835474 2.36609,1.619803 3.02381,2.834815 0.5177,0.95635 0.56696,3.2128 0.56696,3.2128 l -0.94494,2.45685 -1.32292,3.40178 c 0,0 0.39102,2.97133 0.94494,4.34673 0.35923,0.89197 1.51191,2.45684 1.51191,2.45684 0,0 -2.41965,-0.29655 -3.40179,-0.94494 -0.67326,-0.44447 -1.14618,-1.1708 -1.5119,-1.88988 -0.32561,-0.64022 -0.56697,-2.07887 -0.56697,-2.07887 0,0 -0.81244,1.47302 -0.75595,2.26786 0.10984,1.5456 2.07887,4.15774 2.07887,4.15774 l 3.40179,3.02381 c 0,0 2.60971,1.10396 3.21279,2.26786 0.3188,0.61527 0,2.07887 0,2.07887 l 0.94494,4.7247 2.45685,9.26041 1.32292,3.02382 0.37797,2.45684 h -0.56696 c 0,0 -0.2608,1.87373 -0.75595,2.64583 -0.31353,0.4889 -0.76963,0.95732 -1.32292,1.13393 -0.66286,0.21159 -1.44875,0.10614 -2.07887,-0.18899 -0.32271,-0.15115 -0.75595,-0.75595 -0.75595,-0.75595 l 1.5119,-1.13393 v -3.96875 l -2.64583,-10.01637 -2.07887,-4.15774 -3.2128,-3.21279 -4.34672,-2.83482 -3.59078,-2.64584 1.51191,4.91369 c 0,0 1.42499,0.80529 1.70089,1.51191 0.23026,0.58974 -0.18899,2.64583 -0.18899,1.88988 0,-0.75595 -2.45684,6.4256 -2.45684,6.4256 l -3.2128,8.69345 -0.37798,2.26785 v 1.32292 l -2.26785,0.56696 c 0,0 -0.82664,0.64798 -1.32292,0.75596 -0.67991,0.14794 -2.07887,-0.18899 -2.07887,-0.18899 0,0 -1.01629,-0.50524 -0.94494,-0.94494 0.0677,-0.41713 1.13393,-0.56696 1.13393,-0.56696 l 2.45684,-2.45685 c 0,0 2.57807,-5.30779 3.40179,-8.12649 0.41252,-1.41162 0.85933,-2.87971 0.75595,-4.34673 -0.15825,-2.2456 -2.07887,-6.42559 -2.07887,-6.42559 l -4.15774,-5.66964 c 0,0 -1.8673,-1.69293 -2.26785,-2.83483 -0.18767,-0.535 0,-1.70089 0,-1.70089 0,0 -2.51769,0.63872 -3.77977,0.94494 -2.13831,0.51883 -4.25365,1.15945 -6.42559,1.51191 -1.37366,0.22291 -2.76954,0.4756 -4.15774,0.37797 -1.09747,-0.0772 -2.1394,-0.51469 -3.2128,-0.75595 -0.88001,-0.1978 -2.64583,-0.56696 -2.64583,-0.56696 h -0.75595 l -0.75595,9.26041 -1.13393,6.04762 -0.37798,6.80358 -0.18899,4.53571 v 1.70089 l 0.37798,2.26786 -1.32292,0.75595 c 0,0 -0.21016,1.00219 -0.56696,1.32292 -0.63723,0.57281 -1.60122,0.80151 -2.45685,0.75595 -0.47908,-0.0255 -1.32291,-0.56696 -1.32291,-0.56696 l 0.18898,-1.32292 1.88989,-1.32292 0.56696,-4.91369 v -7.9375 l -0.37798,-2.64583 -1.13393,-5.10268 -0.94494,7.55952 -0.18898,7.18155 -0.37798,4.15774 0.94494,0.94494 -1.32292,0.37798 c 0,0 0.0199,1.38548 -0.37797,1.88988 -0.55862,0.70816 -1.55884,1.04953 -2.45685,1.13393 -0.5172,0.0486 -1.08727,-0.0787 -1.5119,-0.37798 -0.37133,-0.26168 -0.75595,-1.13393 -0.75595,-1.13393 L 127,146.75446 l 1.13393,-1.5119 0.37797,-13.22917 -0.56696,-3.02381 v -7.18155 l -1.51191,-3.96875 -0.75595,-0.56696 c 0,0 -3.1089,-1.20081 -4.34672,-2.26786 -0.64899,-0.55945 -1.09384,-1.33094 -1.51191,-2.07887 -0.56509,-1.01095 -0.58866,-2.31713 -1.32292,-3.21279 -0.432,-0.52696 -1.14811,-0.7355 -1.70089,-1.13393 -1.16537,-0.83996 -2.37525,-1.64092 -3.40178,-2.64584 -0.92803,-0.9085 -1.7633,-1.9258 -2.45685,-3.0238 -0.7825,-1.23881 -1.51958,-2.55107 -1.88988,-3.968754 -0.47868,-1.832593 -0.49312,-3.779071 -0.37798,-5.669645 0.0819,-1.344211 0.0117,-2.846366 0.75596,-3.96875 0.12552,-0.189301 0.56696,-0.377976 0.56696,-0.377976 z"
       id="path40"
       inkscape:connector-curvature="0"
       sodipodi:nodetypes="cccccccccccccsssssccsssccccccccccccccccccccccssscsssccccccccscssccccccssscccccssssssssssssssscccscsscsccsccccccssscccccccccsscccccscsccssccscsssscccccccccssccccccccccccsssccccccccssssssssscc" />
  </g>
</svg>
